<?xml version="1.0" encoding="utf-8"?>
<svg width="89" height="59" viewBox="0 0 89 59" fill="none" xmlns="http://www.w3.org/2000/svg">
<path d="M88.6699 29.9443C88.59 29.7961 88.49 29.6578 88.3701 29.5294C88.2801 29.4207 88.1802 29.3318 88.0803 29.2627C88.0003 29.2034 87.9203 29.1441 87.8304 29.0948C87.2108 28.749 86.5512 28.7885 86.5512 28.7885C86.4012 28.7885 86.2513 28.7984 86.0914 28.8182C86.0215 28.828 85.9415 28.8478 85.8716 28.8577C85.3419 28.9565 84.8921 29.1837 84.5523 29.6084C84.4224 29.7763 84.3025 29.9443 84.1825 30.1221C84.0526 30.3295 83.9327 30.537 83.8128 30.7444C83.6628 31.0111 83.4929 31.2679 83.313 31.505C83.0032 31.91 82.6934 32.3249 82.3436 32.7101C82.0238 33.0756 81.694 33.4312 81.3542 33.777C81.3042 33.8264 81.2443 33.8758 81.1943 33.9252C81.1143 33.9943 81.0344 34.0634 80.9544 34.1326C80.6046 34.4487 80.2249 34.7055 79.7951 34.8833C79.5552 34.9821 79.3054 35.0019 79.0455 34.9624C78.7157 34.913 78.4859 34.7352 78.306 34.4685C78.1561 34.2314 78.0561 33.9844 78.0361 33.7078C77.9962 33.3127 77.9962 32.9176 78.0861 32.5225C78.1161 32.4138 78.1361 32.2953 78.1561 32.1866C78.316 31.2383 78.5458 30.2999 78.7757 29.3615C79.0256 28.3835 79.2754 27.4155 79.5253 26.4375C79.7851 25.4003 80.055 24.3631 80.2748 23.3259C80.4347 22.5851 80.5946 21.8541 80.7246 21.1132C80.8445 20.3921 80.9344 19.6611 80.9744 18.9302C81.0044 18.2486 80.9844 17.567 80.8945 16.8953C80.8145 16.3125 80.6946 15.7395 80.4947 15.1864C79.925 13.6157 78.8657 12.4896 77.2866 11.8574C76.557 11.5611 75.7875 11.4129 74.9979 11.3438C74.5082 11.3043 74.0185 11.3141 73.5388 11.3438C73.209 11.3635 72.8892 11.4129 72.5693 11.4919C71.6499 11.7191 70.7804 12.0846 69.9609 12.5588C69.5111 12.8156 69.0814 13.1021 68.6616 13.4182C68.5617 13.4972 68.4717 13.5663 68.3918 13.6256C68.3618 13.6454 68.3418 13.6651 68.3118 13.6849C68.3018 13.6948 68.2818 13.7046 68.2719 13.7145C68.1119 13.8331 68.042 13.8923 68.042 13.8923C68.072 13.7837 68.1319 13.5565 68.1319 13.5565C68.3818 12.6872 68.6416 11.8278 68.8915 10.9585C69.5711 8.63717 70.2507 6.31581 70.9203 3.99445C71.0302 3.61908 71.1102 3.24371 71.1602 2.85846C71.2201 2.43371 71.1901 2.01883 71.0702 1.61382C70.9503 1.18906 70.7104 0.833451 70.3606 0.556864C69.9609 0.230886 69.4911 0.0925921 68.9914 0.0234453C68.5817 -0.0358234 68.1919 0.0234449 67.8021 0.132104C67.2724 0.280276 66.8427 0.57662 66.5129 1.00138C66.333 1.22858 66.1831 1.48541 66.0531 1.75212C65.9332 2.01883 65.8233 2.29541 65.7333 2.572C65.5434 3.15481 65.3436 3.7475 65.1637 4.34018C63.6945 8.95327 62.2754 13.5762 60.8462 18.2091C60.2765 20.0563 59.7069 21.8936 59.1072 23.7211C59.0772 23.8198 59.0373 23.9186 58.9973 24.0174C58.2977 25.6473 57.4482 27.1784 56.4088 28.6206C55.8691 29.3615 55.2695 30.0529 54.6098 30.6851C53.9702 31.2877 53.2906 31.831 52.571 32.3348C51.9714 32.7595 51.3218 33.125 50.6721 33.4708C50.1924 33.7276 49.6827 33.9548 49.193 34.2017C49.133 34.2314 49.0731 34.2511 49.0131 34.2709C48.9931 34.2709 48.9731 34.261 48.9532 34.2511C48.9532 34.2511 48.9532 34.2314 48.9532 34.2215C48.9831 34.182 49.0231 34.1425 49.0531 34.103C49.3429 33.7967 49.6527 33.5103 49.9326 33.1942C50.2924 32.8089 50.6222 32.394 50.932 31.9693C51.5516 31.1296 52.1013 30.2505 52.571 29.322C52.8509 28.7688 53.0807 28.1958 53.3106 27.6229C53.5305 27.0697 53.7104 26.4968 53.8703 25.9239C53.9602 25.6078 54.0402 25.2917 54.1001 24.9756C54.1701 24.6595 54.25 24.3434 54.31 24.0273C54.37 23.6914 54.42 23.3457 54.4699 23C54.5199 22.6542 54.5499 22.3085 54.5799 21.9726C54.6098 21.6269 54.5899 21.2812 54.6398 20.9354C54.6398 20.9058 54.6398 20.8762 54.6398 20.8366C54.6298 20.6292 54.6298 20.4218 54.6398 20.2044C54.6398 20.1353 54.6298 20.0563 54.6298 19.9871C54.6198 19.918 54.6098 19.839 54.6098 19.7698C54.6098 19.4241 54.5599 19.0783 54.5299 18.7326C54.5099 18.5252 54.4699 18.3177 54.4399 18.1103C54.37 17.646 54.2401 17.1916 54.1301 16.7273C53.9302 15.9075 53.6104 15.137 53.1907 14.3961C52.691 13.5268 52.0214 12.8156 51.1819 12.2427C50.6222 11.8673 50.0125 11.6204 49.3629 11.4426C49.1031 11.3734 48.8432 11.3339 48.5834 11.2845C48.1037 11.1956 47.6139 11.1956 47.1242 11.2055C46.8544 11.2549 46.5746 11.2647 46.3047 11.3043C45.815 11.3734 45.3253 11.4919 44.8555 11.6302C44.1859 11.8278 43.5463 12.1143 42.9267 12.4402C42.8567 12.4699 42.7968 12.5094 42.7368 12.5489C42.347 12.8057 41.9572 13.0527 41.5875 13.3293C41.4675 13.4182 41.3476 13.517 41.2277 13.6059C41.2077 13.6256 41.1877 13.6355 41.1577 13.6553C41.1277 13.675 41.1077 13.6948 41.0778 13.7145C41.0678 13.7244 41.0578 13.7244 41.0478 13.7343C40.9778 13.7837 40.9179 13.8331 40.9179 13.8331C40.9578 13.7244 41.0278 13.4774 41.0278 13.4774C41.1777 12.9934 41.2976 12.4995 41.4475 12.0155C41.7274 11.1067 41.9772 10.188 42.2671 9.27924C42.4769 8.62729 42.6568 7.97533 42.8667 7.32338C43.1765 6.35532 43.5063 5.39714 43.8262 4.42909C43.8761 4.27104 43.9261 4.11299 43.9661 3.94506C44.036 3.63884 44.096 3.33261 44.136 3.01651C44.156 2.84859 44.156 2.68066 44.146 2.51273C44.116 2.22627 44.066 1.94968 43.9861 1.68297C43.9361 1.51504 43.8761 1.36687 43.7862 1.2187C43.5963 0.912475 43.3564 0.645767 43.0666 0.428448C42.9367 0.329667 42.7868 0.250642 42.6368 0.191373C42.6368 0.191373 42.6369 0.191373 42.6269 0.191373C42.5969 0.181495 42.5669 0.171617 42.5269 0.151861C42.4869 0.141983 42.447 0.122227 42.407 0.112349C41.9972 0.00368919 41.0778 -0.144483 40.1383 0.458082C40.0983 0.477838 40.0684 0.497595 40.0384 0.517351C39.7785 0.695157 39.5487 0.912476 39.3488 1.17919C39.1889 1.38663 39.0589 1.61382 38.989 1.87065C38.8791 2.23614 38.7691 2.59176 38.6592 2.95725C38.5492 3.33261 38.4393 3.69811 38.3194 4.07347C38.1395 4.66616 37.9596 5.25885 37.7797 5.85154C37.5698 6.53313 37.3599 7.21472 37.1601 7.89631C36.9702 8.51863 36.7903 9.14095 36.6004 9.76327C36.5304 10.0102 36.4505 10.2671 36.3705 10.514C36.2006 11.0573 36.0207 11.5907 35.8708 12.134C35.621 13.0329 35.3311 13.922 35.0513 14.811C34.7415 15.7889 34.4217 16.7669 34.0919 17.7349C33.832 18.5252 33.5722 19.3055 33.3423 20.1057C33.1924 20.6193 33.0425 21.133 32.8926 21.6467C32.7227 22.2097 32.5428 22.7629 32.3529 23.3259C32.153 23.9087 31.9331 24.4916 31.6833 25.0546C30.6738 27.3266 29.4246 29.4602 27.9055 31.4457C27.8655 31.4951 27.8255 31.5445 27.7955 31.5939C27.4258 32.0878 27.016 32.5521 26.5862 33.0164C26.4763 33.1448 26.3564 33.2633 26.2365 33.3819C25.9566 33.6584 25.6768 33.9252 25.3969 34.1919C25.297 34.2906 25.1871 34.3697 25.0871 34.4586C24.4375 34.9722 23.7679 35.4859 23.1283 36.0094C22.4986 36.5231 21.829 36.9676 21.1394 37.3825C21.1394 37.3825 21.1394 37.3825 21.1294 37.3825C20.9495 37.4912 20.6597 37.6591 20.6597 37.6591C20.6697 37.5899 20.6897 37.5109 20.7097 37.422V37.4121C20.7097 37.3924 20.7197 37.3726 20.7197 37.3529C20.7297 37.3331 20.7297 37.3035 20.7397 37.2837V37.2738C20.8096 36.9874 20.8096 36.9874 20.8996 36.7009C20.9595 36.4737 21.0395 36.2465 21.1094 36.0193C21.6192 34.4388 22.1488 32.8583 22.6386 31.2581C22.9983 30.0826 23.3981 28.9268 23.7779 27.7612C23.9878 27.1191 24.1976 26.4869 24.4075 25.8449C24.5674 25.3411 24.7173 24.8472 24.8672 24.3434C24.8872 24.2742 24.9072 24.2051 24.9272 24.1261C25.0671 23.6025 25.2071 23.0691 25.317 22.5357C25.377 22.2492 25.4269 21.9627 25.4269 21.6763C25.4469 20.1551 24.3875 19.6611 24.2076 19.592C24.1677 19.5722 24.1177 19.5525 24.0777 19.5426C23.8279 19.4636 23.568 19.4142 23.3082 19.3944C23.3082 19.3944 22.6286 19.3352 21.9689 19.5821C21.7591 19.6414 21.5792 19.7501 21.4193 19.8785C21.3993 19.8982 21.3693 19.918 21.3493 19.9377C21.2993 19.9871 21.2594 20.0266 21.2194 20.0662C21.0795 20.2143 20.9495 20.3823 20.8396 20.5601C20.6697 20.8268 20.5298 21.1132 20.3999 21.3997C20.19 21.864 20.0001 22.348 19.8302 22.832C19.7303 23.1086 19.6303 23.3852 19.5404 23.6618C19.4304 23.9581 19.3305 24.2545 19.2206 24.5508C18.9507 25.2522 18.6409 25.9436 18.3011 26.6252C17.6215 27.9785 16.8819 29.2923 15.9824 30.5172C15.8125 30.7543 15.6227 30.9815 15.4428 31.2185C15.1729 31.5544 14.9031 31.9001 14.6033 32.2064C14.4833 32.3249 14.3734 32.4533 14.2635 32.5817C14.0736 32.7793 13.8937 32.9769 13.6938 33.1744C13.5739 33.293 13.4339 33.3917 13.314 33.5103C13.0042 33.7967 12.6644 34.0437 12.3146 34.2906C11.8349 34.6166 11.3252 34.9031 10.7755 35.0908C10.4557 35.1994 10.1259 35.2686 9.77608 35.2488C9.41629 35.2291 9.11647 35.0908 8.87661 34.8339C8.78666 34.745 8.7167 34.6364 8.64674 34.5376C8.47684 34.2709 8.34692 33.9844 8.26697 33.6782C8.15703 33.293 8.07708 32.9077 8.05709 32.5027C8.05709 32.4434 8.0371 32.3743 8.0371 32.315C8.0271 32.236 8.01711 32.1471 8.01711 32.0681C8.00712 31.7816 7.99713 31.505 7.99713 31.2185C7.99713 30.9123 8.00712 30.6061 8.01711 30.3098C8.0371 29.9245 8.07708 29.5393 8.12705 29.154C8.19701 28.6305 8.27696 28.1168 8.3869 27.6032C8.52681 26.971 8.68672 26.3388 8.90659 25.7263C9.0665 25.262 9.25639 24.8077 9.45627 24.3533C9.69613 23.7902 9.98596 23.2568 10.3058 22.7332C10.7555 22.0023 11.2552 21.3009 11.8449 20.6588C12.2746 20.1847 12.7244 19.7303 13.2141 19.3055C13.364 19.1771 13.5139 19.0388 13.6738 18.9203C14.2435 18.4758 14.8131 18.051 15.4528 17.7152C15.5027 17.6855 15.5427 17.6658 15.5927 17.6361C16.1823 17.2805 16.802 16.9941 17.4516 16.7471C17.8614 16.5891 18.2711 16.4606 18.7009 16.3717C19.3605 16.2334 20.0201 16.1939 20.6897 16.2236C20.8996 16.2334 21.1094 16.273 21.3193 16.2927C21.4892 16.3026 21.6591 16.3421 21.819 16.3915C22.0889 16.4804 22.3587 16.5594 22.6286 16.6582C23.0583 16.8064 23.4881 16.9644 23.9178 17.1126C24.0777 17.1719 24.2276 17.2311 24.3875 17.2904C24.7873 17.4287 25.4969 17.6361 25.6068 17.6756C25.7867 17.7152 25.9766 17.7448 26.1765 17.7448C26.4563 17.7448 26.7362 17.6954 26.986 17.6065C27.9454 17.2706 28.635 16.3619 28.635 15.295C28.635 15.1864 28.625 15.0777 28.6151 14.9789C28.6051 14.9295 28.5951 14.8801 28.5751 14.8307C28.5651 14.811 28.5651 14.7912 28.5651 14.7715C28.5151 14.5146 28.4052 14.2776 28.2753 14.0405C28.2153 13.922 28.1353 13.8232 28.0554 13.7145C27.8755 13.4873 27.6556 13.2898 27.4158 13.1218C27.036 12.8452 26.6462 12.6082 26.2165 12.4106C25.6368 12.1439 25.0471 11.9167 24.4375 11.7488C23.7879 11.5611 23.1283 11.4228 22.4587 11.3141C21.889 11.2252 21.3193 11.2055 20.7497 11.1758C20.4498 11.166 20.16 11.1857 19.8602 11.1956C19.6303 11.2055 19.3905 11.2252 19.1606 11.2549C18.9707 11.2746 18.7808 11.3141 18.5909 11.324C18.381 11.3438 18.1712 11.3833 17.9613 11.4327C17.8214 11.4623 17.6715 11.4919 17.5215 11.5216C17.2517 11.5808 16.9819 11.6302 16.722 11.7093C16.2623 11.8476 15.8125 11.9858 15.3728 12.1637C14.5533 12.4798 13.7438 12.8156 12.9642 13.2305C12.5545 13.4478 12.1547 13.6849 11.7649 13.9318C10.2958 14.8604 9.00653 15.9766 7.8672 17.2805C7.09765 18.1597 6.43804 19.1277 5.8084 20.1057C5.55855 20.4909 5.32869 20.8959 5.11881 21.3009C4.94891 21.617 4.789 21.9331 4.62909 22.2591C4.42921 22.674 4.25931 23.0987 4.06942 23.5235C3.9395 23.81 3.82956 24.1063 3.72962 24.4026C3.54973 24.9855 3.35984 25.5584 3.21992 26.1511C3.10998 26.6252 2.99005 27.1093 2.9101 27.5933C2.87012 27.8402 2.82015 28.0872 2.78018 28.3341C2.77018 28.3737 2.77018 28.4132 2.76019 28.4626C2.73021 28.7293 2.71022 29.0059 2.67024 29.2726C2.62027 29.6479 2.58029 30.0233 2.56031 30.3987C2.55031 30.5567 2.55031 30.7148 2.54032 30.8728C2.51034 31.1593 2.52033 31.4359 2.51033 31.7223C2.51033 32.1175 2.54032 32.5126 2.56031 32.9176C2.5703 33.0361 2.58029 33.1448 2.59029 33.2633C2.62027 33.5004 2.66025 33.7375 2.68024 33.9844C2.70022 34.1524 2.73021 34.3203 2.76019 34.4783C2.80016 34.666 2.85014 34.8438 2.89011 35.0315C3.01004 35.5649 3.17994 36.0786 3.4198 36.5725C3.4298 36.6021 3.44979 36.6318 3.45978 36.6614C3.69964 37.2146 4.02945 37.7184 4.40922 38.1826C4.57912 38.3901 4.74902 38.5777 4.94891 38.7556C5.39864 39.1606 5.88836 39.4964 6.43804 39.7631C6.71787 39.9014 6.99771 40.0101 7.29753 40.0891C7.51741 40.1385 7.72728 40.1978 7.94715 40.257C8.32693 40.3459 8.7167 40.3953 9.10648 40.4052C9.33634 40.4151 9.5762 40.4052 9.80606 40.4052C10.4757 40.3854 11.1353 40.2768 11.7749 40.099C12.5844 39.8817 13.354 39.5458 14.0436 39.0717C14.3534 38.8642 14.6532 38.6469 14.9531 38.4395L15.083 38.3506C15.083 38.3506 15.073 38.3604 15.043 38.4592C14.9131 38.963 14.7432 39.447 14.5133 39.9113C14.4733 39.9903 14.4134 40.0693 14.3534 40.1484C14.0636 40.5336 13.6938 40.83 13.284 41.0769C12.9942 41.2448 12.6944 41.4029 12.3746 41.5313C11.8349 41.7585 11.2952 41.9561 10.7455 42.1536C10.2358 42.3314 9.72611 42.5092 9.22641 42.7167C7.68731 43.3785 6.22816 44.1786 4.84897 45.1368C4.12939 45.6406 3.43979 46.174 2.81016 46.7865C2.48035 47.1124 2.15055 47.4384 1.86072 47.8039C1.25107 48.5645 0.771353 49.3943 0.45154 50.3228C0.321616 50.7081 0.221675 51.1032 0.141722 51.5082C0.0617685 51.9231 0.0117965 52.338 0.0018023 52.7528C-0.00819185 53.2468 0.0217917 53.7407 0.131727 54.2148C0.191692 54.4815 0.251656 54.7482 0.331609 55.0051C0.561475 55.6965 0.93126 56.2991 1.40099 56.8424C1.59087 57.0696 1.79076 57.2869 2.04061 57.4548C2.08059 57.4845 2.12056 57.524 2.16054 57.5536C2.59029 57.8895 3.04003 58.1759 3.53973 58.3834C3.99946 58.5711 4.46919 58.7192 4.9589 58.8279C5.60852 58.9662 6.25814 59.0156 6.91776 58.9958C7.1876 58.9859 7.46743 58.9563 7.73728 58.9168C7.97713 58.8872 8.217 58.818 8.45685 58.7686C8.85662 58.6797 9.24639 58.5316 9.62617 58.3834C9.906 58.2747 10.1659 58.1364 10.4157 57.9883C11.0553 57.5931 11.645 57.1387 12.1947 56.6251C12.4945 56.3485 12.7943 56.062 13.0642 55.7459C13.294 55.4891 13.5139 55.2224 13.7238 54.9359C14.4034 54.0173 14.9531 53.0294 15.4328 52.0021C16.1923 50.3821 16.8919 48.7226 17.5315 47.0532C17.8514 46.2234 18.1612 45.3838 18.531 44.5738C18.6409 44.3169 18.7408 44.2182 18.9107 44.0897C18.9707 44.0502 19.0307 44.0107 19.1006 43.9712C19.6203 43.665 20.14 43.3686 20.6797 43.092C20.9096 42.9735 21.1294 42.8649 21.3593 42.7463C21.7491 42.5389 22.1388 42.3216 22.5286 42.1042C23.0483 41.8079 23.568 41.4918 24.0677 41.1559C25.287 40.3459 26.4763 39.5162 27.6556 38.6568C27.7056 38.6271 27.7456 38.5876 27.7955 38.558C27.8355 38.5284 27.9255 38.4592 27.9854 38.4296C27.9854 38.4296 28.0054 38.5185 28.0454 38.6765C28.0654 38.7753 28.0854 38.8741 28.1153 38.9729C28.1853 39.289 28.3452 39.5557 28.5651 39.7928C28.775 40.0101 29.0148 40.1681 29.3047 40.2669C29.5845 40.3657 29.8643 40.4447 30.1642 40.4842C30.424 40.5237 30.6739 40.5237 30.9237 40.4842C31.0736 40.4645 31.2135 40.425 31.3535 40.3854C31.9431 40.2076 32.4228 39.8915 32.7826 39.3878C32.8926 39.2297 32.9925 39.0717 33.0824 38.9037C33.2523 38.5876 33.3923 38.2617 33.5122 37.9258C33.5622 37.7875 33.6021 37.6492 33.6621 37.5208C33.6721 37.4813 33.7421 37.3232 33.7421 37.3232L33.772 37.3529C33.782 37.3627 33.802 37.3825 33.812 37.3924L33.842 37.422C33.9419 37.5208 34.0419 37.6295 34.1418 37.7381C34.4416 38.074 34.7715 38.3901 35.1312 38.6667C35.7109 39.1112 36.3505 39.4569 37.0401 39.7236C37.5398 39.9212 38.0595 40.0891 38.5892 40.1879C38.6492 40.1978 38.7191 40.2076 38.7791 40.2274C39.3887 40.3756 40.0084 40.425 40.638 40.4645C40.7879 40.4743 40.9378 40.4743 41.0778 40.4842C41.4475 40.504 41.8173 40.5139 42.1871 40.504C42.5769 40.4941 42.9667 40.4743 43.3664 40.4546C43.7162 40.4348 44.066 40.4151 44.4158 40.3756C44.7956 40.3361 45.1754 40.2768 45.5452 40.2175C46.0848 40.1385 46.6045 40.0298 47.1342 39.9113C47.7638 39.773 48.3835 39.5952 49.0031 39.3976C49.4329 39.2593 49.8626 39.1112 50.3024 38.9729C50.4623 38.9235 50.6222 38.8642 50.7821 38.8049C51.0319 38.7062 51.2718 38.6074 51.5216 38.5086C52.611 38.0641 53.6704 37.5702 54.6698 36.9479C54.7098 36.9281 54.7398 36.9083 54.7797 36.8787C54.7897 36.8688 54.7997 36.8688 54.8097 36.859C54.9996 36.7602 55.0296 36.7404 55.0296 36.7404L54.9896 36.9676C54.9696 37.0862 54.9496 37.2047 54.9297 37.3331C54.8297 37.9455 54.9097 38.5481 55.0996 39.1309C55.2894 39.7137 55.6892 40.1187 56.2889 40.2965C56.8985 40.4743 57.5181 40.4941 58.1478 40.3756C58.5575 40.2965 58.9273 40.1187 59.2471 39.852C59.3771 39.7434 59.497 39.6248 59.5969 39.4964C59.7968 39.2495 59.9667 38.9828 60.1066 38.6963C60.2266 38.4493 60.3265 38.2024 60.4264 37.9455C60.6263 37.4121 60.7762 36.8688 60.9261 36.3255C61.0461 35.8711 61.166 35.4168 61.3159 34.9624C61.5558 34.2511 61.8056 33.53 62.0455 32.8188C62.5052 31.4457 62.9749 30.0826 63.4247 28.7095C63.6945 27.8995 63.9744 27.0994 64.2942 26.319C64.624 25.5189 64.9738 24.7187 65.3735 23.9384C65.7533 23.1876 66.1631 22.4567 66.6328 21.7553C67.1625 20.9749 67.7821 20.2835 68.5017 19.671C68.8815 19.3549 69.2713 19.0487 69.691 18.782C70.2307 18.4264 70.7904 18.1202 71.39 17.8633C71.9097 17.646 72.4494 17.488 73.0091 17.4287C73.4188 17.3892 73.8386 17.3793 74.2384 17.4583C74.7681 17.567 75.1378 17.8633 75.3277 18.3671C75.4077 18.5844 75.4576 18.8116 75.4776 19.0388C75.5076 19.4142 75.5076 19.7896 75.4676 20.1649C75.4077 20.7082 75.3077 21.2416 75.1978 21.7751C75.0679 22.3776 74.898 22.9703 74.7481 23.5729C74.5282 24.4718 74.2883 25.3608 74.0485 26.2499C73.6287 27.8205 73.219 29.3911 72.8991 30.9815C72.7992 31.4853 72.6993 31.989 72.6093 32.4928C72.5394 32.8978 72.4994 33.3028 72.4594 33.7078C72.4294 33.9844 72.4194 34.2709 72.4294 34.5574C72.4394 34.8833 72.4494 35.1994 72.4994 35.5254C72.5693 35.9798 72.6693 36.4342 72.8292 36.8688C73.0191 37.4023 73.2789 37.906 73.5987 38.3802C73.9985 38.9729 74.4982 39.4371 75.1278 39.7631C75.5876 40.0101 76.0773 40.178 76.587 40.2867C77.1566 40.3953 77.7163 40.4447 78.296 40.3953C78.4559 40.3756 78.6158 40.3558 78.7657 40.3361C79.1855 40.2768 79.5952 40.1879 80.005 40.0792C80.3948 39.9804 80.7645 39.8323 81.1443 39.6742C81.5241 39.5261 81.8939 39.3384 82.2437 39.1112C82.8933 38.6963 83.5229 38.2617 84.1326 37.7776C84.7422 37.2837 85.3019 36.7404 85.8416 36.1872C85.8716 36.1576 85.9015 36.128 85.9315 36.0983C86.2513 35.7329 86.5711 35.3772 86.881 34.992C87.2507 34.5376 87.6205 34.0733 87.9503 33.5893C88.0503 33.4411 88.1602 33.3028 88.2701 33.1547C88.3601 33.0262 88.45 32.8978 88.54 32.7694C88.59 32.7003 88.6299 32.6212 88.6699 32.5422C88.6799 32.5323 88.6799 32.5126 88.6899 32.5027C89.2296 31.3272 88.9597 30.4481 88.6699 29.9443ZM11.8848 47.0235C11.8848 47.0334 11.8848 47.0433 11.8749 47.0433C11.8649 47.0631 11.8649 47.0828 11.8549 47.0927L11.8449 47.1124C11.3652 48.4065 10.7655 49.6511 10.0559 50.8365C9.7461 51.36 9.39631 51.8638 9.02652 52.3479C8.74669 52.7035 8.43687 53.0294 8.07708 53.3159C7.78725 53.553 7.45744 53.711 7.07766 53.7703C6.61793 53.8394 6.24815 53.6814 5.92834 53.3752C5.85838 53.306 5.79841 53.2171 5.74844 53.1282C5.72845 53.0887 5.70846 53.0492 5.68847 52.9998C5.68847 52.9899 5.67848 52.98 5.67848 52.9702V52.9603C5.60852 52.7825 5.59853 52.6343 5.59853 52.6343C5.56854 52.4466 5.57854 52.2491 5.59853 52.1009C5.59853 52.0515 5.60852 51.9922 5.61852 51.9428C5.62851 51.8935 5.62851 51.8737 5.62851 51.8737C5.68847 51.5872 5.82839 51.3106 6.00829 51.0439C6.25814 50.6686 6.55796 50.3228 6.89777 50.0166C7.06767 49.8586 7.23757 49.7104 7.41746 49.5523C7.73728 49.2856 8.06708 49.0486 8.41688 48.8312C8.78666 48.604 9.15645 48.3867 9.52623 48.1595C9.69613 48.0607 9.87602 47.962 10.0459 47.8533C10.5956 47.5174 11.1653 47.231 11.7449 46.9544C11.7449 46.9544 11.7549 46.9544 11.7649 46.9445C11.7749 46.9445 11.7749 46.9346 11.7849 46.9346C11.7949 46.9346 11.8049 46.9248 11.8049 46.9248C11.8349 46.9149 11.8848 46.8951 11.9548 46.8655L11.8848 47.0235ZM48.2336 25.3016C47.9937 26.1511 47.6339 26.9611 47.2541 27.7513C47.1042 28.0674 46.9243 28.3638 46.7644 28.67C46.7444 28.7194 46.7145 28.7589 46.6845 28.8083C46.2547 29.6282 45.7151 30.3789 45.1654 31.1296C44.7356 31.7125 44.2459 32.2459 43.7262 32.7595C43.3964 33.0855 43.0466 33.3917 42.6968 33.6881C42.357 33.9745 41.9972 34.2314 41.6075 34.4487C41.2077 34.6858 40.7679 34.8537 40.3082 34.9327C39.9284 35.0019 39.5487 34.9821 39.1689 34.8833C39.0589 34.8537 38.949 34.8043 38.8391 34.7549C38.4893 34.587 38.2094 34.34 37.9696 34.0338C37.8497 33.8856 37.7497 33.7177 37.6598 33.5498C37.6398 33.5103 37.6198 33.4806 37.6098 33.4411C37.4899 33.2041 37.3999 32.9472 37.32 32.7003C37.25 32.4533 37.2 32.1965 37.1601 31.9397C36.9602 30.6259 37.1101 29.1738 37.3699 27.8995C37.3799 27.8304 37.3899 27.7711 37.3999 27.7019C37.4499 27.4451 37.4999 27.1883 37.5698 26.9314C37.6997 26.4375 37.8397 25.9436 37.9996 25.4497C38.1295 25.0645 38.2694 24.6792 38.4293 24.3039C38.4393 24.2841 38.4393 24.2742 38.4393 24.2742C38.6092 23.8692 38.7891 23.4741 38.979 23.0691C38.989 23.0395 39.009 23.0098 39.019 22.9802C39.6786 21.7454 40.4381 20.5798 41.3676 19.513C42.0172 18.7622 42.7468 18.0905 43.5563 17.5176C44.1859 17.0632 44.8755 16.7273 45.6151 16.4804C45.8849 16.3915 46.1648 16.3421 46.4546 16.3223C46.6645 16.3026 46.8744 16.3026 47.0842 16.3421C47.504 16.4014 47.8438 16.5891 48.1036 16.915C48.1936 17.0336 48.2735 17.1521 48.3435 17.2805C48.6133 17.7843 48.8032 18.3177 48.8932 18.8808C48.9731 19.4142 49.0331 19.9377 49.0131 20.481C49.0031 20.8366 48.9931 21.1923 48.9631 21.5479C48.9132 22.1208 48.8232 22.6937 48.7233 23.2568C48.6333 23.9581 48.4335 24.6298 48.2336 25.3016Z" fill="url(#paint0_linear)"/>
<defs>
<linearGradient id="paint0_linear" x1="-2.06291" y1="30.8153" x2="89" y2="30.8153" gradientUnits="userSpaceOnUse">
<stop stop-color="#00AE42"/>
<stop offset="1" stop-color="#00A7E1"/>
</linearGradient>
</defs>
</svg>
